<?xml version="1.0" encoding="utf-8"?>
<!-- Generator: Adobe Illustrator 25.2.1, SVG Export Plug-In . SVG Version: 6.00 Build 0)  -->
<svg version="1.1" id="レイヤー_1" xmlns="http://www.w3.org/2000/svg" xmlns:xlink="http://www.w3.org/1999/xlink" x="0px"
	 y="0px" viewBox="0 0 129.2 48.8" style="enable-background:new 0 0 129.2 48.8;" xml:space="preserve">
<style type="text/css">
	.st0{fill:#505050;}
</style>
<g>
	<path class="st0" d="M128.9,9.2l-1-0.3c-2.5-0.8-13.2-3.5-16.4-4.2c-8.8-1.9-17.7-1.9-25.8-0.2c-3.6,0.8-6,1.9-9,4.2
		c-1.2,0.9-2,1.5-2.3,1.6c-0.2-0.1-0.7-0.3-1.3-0.6C71.8,9,71,8.9,65.7,8.8c-5-0.1-6.2,0-7.5,0.4c-2.4,0.9-2.4,0.9-4.7-0.7
		C49.1,5.5,45,4,38.6,3.3c-3.3-0.4-8.7-0.3-12.2,0c-3.6,0.4-7.8,1.2-17.5,3.6L0.5,9C0.3,9.1,0.1,9.2,0.1,9.5L0,12.4
		c-0.2,4.4,0,5.2,2,6.1c2.5,1.1,3.1,1.9,4.8,7.1c0.9,2.7,2.4,6.5,3.3,8.5c1.5,3.1,2.1,4,4.3,6.2c2.8,2.8,4.8,4,8.7,5
		c2.2,0.6,5,0.8,7.8,0.8c3.3,0,6.6-0.4,9.4-1.1c4.2-1.1,8.5-4.1,11.4-7.9c1.9-2.5,3.9-6.8,5.4-11.7l1.4-4.4c0-0.1,0-0.3-0.1-0.4
		l-0.7-1c-0.6-0.8-0.7-1.6-0.5-2.3c0.4-0.9,1.4-1.6,2.8-1.9c2.2-0.4,8.7-0.4,10.1,0.1c1.2,0.4,2.4,1.7,2.4,2.4
		c0,0.2-0.3,0.9-0.7,1.5c-0.8,1.2-0.8,1.4-0.3,3.5c2.8,12.5,8.6,20,17.3,22.2C92.1,46,97,46.3,101,46c11.6-1.1,16.1-5.3,21-19.5
		c2.1-6,2.6-6.6,4.9-7.8c0.6-0.3,1.7-0.9,1.9-1.5c0.1-0.4,0.2-2.6,0.2-4V9.7C129.2,9.5,129.1,9.3,128.9,9.2z M8.3,14.9
		c-0.2-0.1-1.2-0.4-2.1-0.6c-0.4-0.1-0.8-0.2-1-0.4c-0.2-0.1-0.4-0.1-0.5-0.2h0.1c-0.1-0.1-0.1-0.1-0.1-0.2c0.2-0.3,2.7-1.1,3.5-1.2
		c0.3,0,0.9,0.2,1.3,0.4c0.4,0.2,0.6,0.6,0.6,0.8C10.1,14.1,8.8,15,8.3,14.9z M43.5,39.3c-3.3,1.7-5.8,2.2-10.9,2.4
		c-7.4,0.2-10.8-0.8-14.4-4.5c-2.6-2.6-4.5-6.3-5.4-10.5c-0.6-2.5-0.7-3.5-0.5-6.5c0.2-4.1,0.4-5.2,1.8-7.2c1.7-2.5,4-3.7,9.5-4.7
		c2.9-0.5,4-0.7,7-0.7c1,0,2.1,0,3.6,0c4.4,0.1,6.1,0.3,8.1,0.7c7.5,1.9,10.3,5.6,10.3,13.8C52.5,29.8,48.9,36.6,43.5,39.3z
		 M114.6,32.1c-3.4,7-8,9.6-16.7,9.7c-9.5,0-15.4-3.1-18.6-9.8c-3.3-6.7-2.6-15.9,1.4-19.8c3-2.9,8.6-4.4,16.3-4.4
		c0.8,0,1.6,0,2.4,0c2.4,0.1,5.4,0.4,6.8,0.6c6.6,1.2,9.2,2.9,10.7,7.1c0.4,1.1,0.5,2.4,0.5,5.4C117.2,25.8,116.8,27.7,114.6,32.1z
		 M123.3,14.7c-1.8,0.2-1.9,0.1-2.4-0.6c-0.5-0.7-0.5-0.8,0.1-1.2c0.9-0.6,1.6-0.6,3.5,0.3S126.2,14.4,123.3,14.7z"/>
</g>
</svg>
